<?xml version="1.0" encoding="utf-8"?>
<svg viewBox="0 0 500 500" xmlns="http://www.w3.org/2000/svg">
  <path d="M 5.178 247.694 C 5.178 432.521 208.568 556.197 366.547 460.258 C 435.856 418.167 492.512 332.268 492.512 246.49 C 492.512 61.663 285.293 -52.651 125.226 39.764 C 50.94 82.652 5.178 161.916 5.178 247.694 Z M 71.445 246.49 C 71.445 111.679 216.983 28.628 330.153 96.032 C 382.675 127.316 425.402 183.924 425.402 246.49 C 425.402 381.3 273.568 466.76 160.398 399.355 C 107.875 368.072 71.445 309.055 71.445 246.49 Z" style="stroke-width: 5px; stroke: rgb(35, 43, 255); fill: rgb(35, 43, 255);"/>
  <path d="M 247.525 76.471 L 394.816 333.15 L 100.234 333.15 L 247.525 76.471 Z" style="stroke-width: 4px; stroke: rgb(35, 43, 255); fill: rgb(35, 43, 255);"/>
  <path d="M 210.06 173.378 C 218.136 173.378 224.505 179.034 229.168 190.347 C 233.83 201.66 236.162 217.989 236.163 239.334 L 236.168 324.074 L 229.665 324.074 L 229.663 280.103 L 190.469 280.103 L 190.472 324.074 L 184.058 324.074 L 184.054 239.334 C 184.052 217.989 186.382 201.66 191.043 190.347 C 195.704 179.034 202.043 173.378 210.06 173.378 Z M 229.662 266.442 L 229.66 237.84 C 229.659 221.191 227.936 208.633 224.492 200.166 C 221.047 191.699 216.237 187.466 210.061 187.466 C 203.885 187.466 199.075 191.699 195.631 200.166 C 192.187 208.633 190.466 221.191 190.467 237.84 L 190.469 266.442 L 229.662 266.442 Z M 287.217 173.378 C 295.293 173.378 301.662 179.034 306.325 190.347 C 310.987 201.66 313.319 217.989 313.32 239.334 L 313.325 324.074 L 306.822 324.074 L 306.82 280.103 L 267.626 280.103 L 267.629 324.074 L 261.215 324.074 L 261.21 239.334 C 261.209 217.989 263.539 201.66 268.2 190.347 C 272.861 179.034 279.2 173.378 287.217 173.378 Z M 306.819 266.442 L 306.817 237.84 C 306.816 221.191 305.093 208.633 301.649 200.166 C 298.204 191.699 293.394 187.466 287.218 187.466 C 281.042 187.466 276.232 191.699 272.788 200.166 C 269.344 208.633 267.623 221.191 267.624 237.84 L 267.625 266.442 L 306.819 266.442 Z" style="fill: rgb(255, 255, 255); white-space: pre;"/>
  <rect x="-199.303" y="-303.876" width="7.954" height="47.835" style="stroke: rgb(0, 0, 0); stroke-width: 0px; fill: rgb(35, 43, 255);" transform="matrix(-1, 0, 0, -1, 0, 0)"/>
  <rect x="-276.066" y="261.479" width="7.941" height="42.397" style="stroke: rgb(0, 0, 0); stroke-width: 0px; fill: rgb(35, 43, 255);" transform="matrix(-1, 0, 0, 1, 0, 0)"/>
  <path style="fill: rgb(51, 51, 51); white-space: pre;"/>
  <path d="M -67.31214776228465 75.6938615715169 L -80.71698261584608 73.35601676188284 L -80.40760888251116 71.58211637880582 L -67.00277402894973 73.91996118843988 Z M -66.17056368378574 68.3183162483853 L -78.90172997788103 63.51492988069842 L -78.24970140545969 61.78675655701154 L -65.73116122290678 58.87113559026818 L -75.72677677850274 55.09985475179096 L -75.11734303744561 53.484577172867546 L -62.38617674335031 58.28796354055443 L -63.038205315771656 60.016136864241304 L -75.5654297863833 62.92848130549511 L -65.56112994272861 66.70303866946189 Z M -57.95447759438839 50.43525681992788 L -67.76380248609479 43.52070115954956 L -70.34673395087648 47.18497333487376 L -71.65919582733835 46.259823969641396 L -65.44518679612443 37.44432859132522 L -64.13272491966255 38.369477956557574 L -66.72635175282844 42.04892310155185 L -56.91702686112204 48.96347876193017 Z M -51.522021296916684 41.86269042642524 L -60.501288448683276 31.63880284770091 L -53.10884586106542 25.146290446014287 L -52.04921883701656 26.35279286833305 L -58.08870495105153 31.657053000277028 L -55.338574697884276 34.788380096352896 L -49.68265871811249 29.820995607892662 L -48.62915670576334 31.020524027770275 L -54.28507268553513 35.98790851623051 L -51.22869184738265 39.46793573436383 L -44.95208965034861 33.955425204629904 L -43.89246262629976 35.16192762694867 Z M -39.87617197680292 32.06640373190033 L -46.304336339586435 20.073329950328386 L -40.98680703670665 17.22318886178181 Q -39.383367431530594 16.36376170277392 -38.37572349015932 16.23965095882315 Q -37.368079548788046 16.115540214872382 -36.43056663135678 16.666146867005672 Q -35.49305371392551 17.21675351913896 -34.962488988211454 18.20663205090581 Q -34.27845512696028 19.482839083596957 -34.63554030098547 20.801054291829793 Q -34.99262547501066 22.11926950006262 -36.591617153994946 23.28171276078084 Q -35.79945565153653 23.24677079214771 -35.31436911107058 23.36588680962742 Q -34.27698296391456 23.63127956823998 -33.14221568025485 24.255187577020585 L -29.306559885540345 26.401200214358518 L -31.30267857769829 27.471099330674463 L -34.22713044964504 25.826608459597082 Q -35.50129754877262 25.119451728129892 -36.258180607013614 24.78796051069678 Q -37.015063665254615 24.456469293263666 -37.493704396261656 24.41814670383466 Q -37.97234512726869 24.379824114405643 -38.38871492819731 24.487152616948595 Q -38.68937562760478 24.574586387413024 -39.30293670101399 24.90344882070686 L -41.14361992124161 25.890036120588366 L -38.28909400025111 31.215746237780273 Z M -41.8802717718198 24.515659316151748 L -38.46887220366462 22.68718418703802 Q -37.38082390015229 22.104001471996952 -36.88784571895083 21.550166645119738 Q -36.39486753774936 20.996331818242528 -36.3410981424336 20.33038408704631 Q -36.28732874711784 19.664436355850086 -36.598651850636 19.083598539689373 Q -37.05467442480346 18.232793851228607 -37.96610967911121 18.015734141832176 Q -38.877544933418974 17.79867443243575 -40.211017666294985 18.513402120794353 L -44.006915507119935 20.547964374772214 Z M -20.72671152472102 17.785424312075673 L -21.16009379744376 16.248897473453106 L -15.615036910746708 14.675252600200512 L -14.244339490042218 19.534965392123055 Q -15.234559018138933 20.913673093299366 -16.4475392436568 21.810326573965963 Q -17.660519469174666 22.70698005463256 -19.08984676091659 23.110126354839764 Q -21.01943860476819 23.654373860119488 -22.82923422827829 23.272764781997257 Q -24.63902985178839 22.891155703875025 -25.88396771924485 21.554598772398847 Q -27.12890558670131 20.218041840922666 -27.673153091981035 18.28844999707107 Q -28.212361268508168 16.376724744366243 -27.88022905649275 14.494088453824544 Q -27.54809684447734 12.611452163282847 -26.27407298201487 11.38415194646045 Q -25.0000491195524 10.156851729638054 -23.04365738898064 9.605045231229447 Q -21.6232633928121 9.204418595398538 -20.345572196252675 9.340706445074062 Q -19.067880999693244 9.476994294749584 -18.18394130021685 10.114921988031654 Q -17.30000160074046 10.752849681313725 -16.587626041260087 11.979230179875797 L -18.030008876540656 12.848969633250002 Q -18.60701004060747 11.931589453448389 -19.206000043786318 11.483322091190075 Q -19.804990046965163 11.03505472893176 -20.71492702263074 10.920412307599205 Q -21.62486399829632 10.805769886266653 -22.61645980694228 11.085452632035398 Q -23.804588118202755 11.420567994082635 -24.56907138158135 12.026773909305426 Q -25.333554644959943 12.632979824528219 -25.698787882741 13.372497362761315 Q -26.064021120522057 14.112014900994414 -26.159766388716523 14.900894175709725 Q -26.317356585650074 16.25692357876288 -25.916729949819167 17.677317574931422 Q -25.422875732065343 19.42824350731528 -24.487282583190776 20.437361177602455 Q -23.55168943431621 21.44647884788963 -22.238035785266405 21.69317306004434 Q -20.924382136216593 21.939867272199056 -19.629054278075472 21.574515937636278 Q -18.50345903582871 21.257038226223106 -17.553667289272575 20.52141366575843 Q -16.603875542716438 19.78578910529376 -16.188592757862665 19.13823865742718 L -16.876461132591206 16.699448965892522 Z M -8.597069961970762 20.294486045779177 L -9.57603447785526 6.722575926646087 L -3.5584754209408604 6.288519354118854 Q -1.7439499207020575 6.1576346030183355 -0.773278753901911 6.455203545095781 Q 0.19739241289823362 6.75277248717323 0.8288951201666972 7.637816263738275 Q 1.4603978274351608 8.522860040303318 1.5411991278594606 9.643051803205845 Q 1.6453727052659968 11.0872659768653 0.7817889952845505 12.145294489042364 Q -0.08179471469689581 13.203323001219427 -2.015821361474817 13.612700154225218 Q -1.2782642221426386 13.903819121950196 -0.8839128392387057 14.210388142177624 Q -0.044914481554322094 14.875733984907637 0.7368072220013389 15.90814338513366 L 3.3639858865421655 19.43171513546351 L 1.1050867944081464 19.594653294996807 L -0.8945958389183151 16.900578622245103 Q -1.7696542810895757 15.735312488632971 -2.325576909100648 15.123995530948338 Q -2.881499537111723 14.51267857326371 -3.3029109263525527 14.282509046050372 Q -3.7243223155933816 14.052339518837037 -4.148268130760993 13.980553974433446 Q -4.458449430585402 13.937786210579597 -5.152783167921679 13.987869661255816 L -7.235784379930509 14.138120013284475 L -6.801060028060927 20.164936853363358 Z M -7.34797130944524 12.582812441651214 L -3.4874757298555403 12.304348455891436 Q -2.2561905689792088 12.215533803358941 -1.5802207635575467 11.91086131565942 Q -0.9042509581358829 11.6061888279599 -0.5835980649331702 11.020049552157003 Q -0.26294517173045584 10.433910276354103 -0.31035750503727755 9.776607671675762 Q -0.37980655664163443 8.813798222569458 -1.123510401497576 8.243944090896445 Q -1.867214246353516 7.674089959223432 -3.3762329021643573 7.782937992026415 L -7.67184429048479 8.092787606876625 Z M 18.21563428920311 7.050585751244466 L 20.001562146552082 7.280577847420204 L 18.997421396753882 15.07790204935103 Q 18.73542009131657 17.112386876537233 18.121010991469692 18.24986634378764 Q 17.506601891622815 19.387345811038053 16.20862281315702 19.982908449300975 Q 14.910643734691229 20.5784710875639 12.959011230784103 20.327139518547114 Q 11.062613609063028 20.08292110714401 9.940824379762834 19.274004393377005 Q 8.819035150462636 18.46508767961 8.462962866566215 17.16051626621166 Q 8.106890582669795 15.855944852813318 8.383118203334472 13.710990261255015 L 9.387258953132672 5.913666059324189 L 11.173186810481646 6.143658155499928 L 10.170231586952392 13.93177654373308 Q 9.943796069583495 15.690086959989028 10.163312328511248 16.565299282176248 Q 10.382828587439 17.44051160436347 11.12104068510949 17.994144497813473 Q 11.85925278277998 18.54777739126348 13.00997949498937 18.695968174881866 Q 14.980023626291844 18.94967079643655 15.93274872086815 18.16458975823625 Q 16.885473815444456 17.37950872003595 17.212679065673857 14.838704139477617 Z M 23.709696720816197 21.8789007336574 L 28.15887015444393 9.019663914829877 L 33.009591819390465 10.697967399683995 Q 34.290252512124994 11.141063798940236 34.92318075699466 11.497554706070467 Q 35.81589048047903 11.98321431969304 36.30295803121314 12.647730772630021 Q 36.79002558194725 13.312247225567003 36.90418742094977 14.245520600948817 Q 37.018349259952295 15.17879397633063 36.68754441393222 16.13490367159134 Q 36.12001683406293 17.77520195612118 34.68317021667189 18.54997653281727 Q 33.24632359928085 19.324751109513354 30.518340890784692 18.380895080960677 L 27.22020102456427 17.239770107533644 L 25.411396545408653 22.46767266143624 Z M 27.74523990861447 15.722274903129033 L 31.069694720576017 16.872504597088728 Q 32.718764653686236 17.443067083802244 33.624168370631196 17.068809323869544 Q 34.529572087576156 16.694551563936848 34.915005256792206 15.580552194229416 Q 35.19421668646052 14.773560524835055 34.98512142576962 14.057894374564324 Q 34.77602616507872 13.34222822429359 34.173113916698966 12.927370683944966 Q 33.78275692523554 12.66462881703329 32.62489931262624 12.26402111359614 L 29.335531094986184 11.12593104701333 Z M 35.40855087400374 25.865632416070067 L 47.01326472593385 17.045575889228452 L 48.66277732740384 18.06652377492135 L 46.23693024824691 32.56774006760432 L 44.49270878927625 31.48817316455106 L 45.31201121222495 27.148624439641203 L 40.47396707489911 24.15416963614959 L 37.03438626109856 26.871925547422876 Z M 41.68775880514694 23.180725093405783 L 45.610283986632986 25.608529395747272 L 46.386022807524895 21.656820578963405 Q 46.737264323076516 19.854781424559338 47.05022781564817 18.74949803849002 Q 46.14046702749573 19.725549406948716 45.05895076536041 20.57346284921661 Z M 54.07778682659591 39.4723359280199 L 68.34948959780822 36.509013344832056 L 69.39860621174039 38.14075497207595 L 60.96481072283969 50.184056083898504 L 59.85545774829896 48.4586259421717 L 62.4635646454946 44.89481926827412 L 59.38649055774137 40.10889765343915 L 55.111844350375954 41.08065542664307 Z M 60.901159014606144 39.75299863968017 L 63.395948283143426 43.63326461451375 L 65.79772942538935 40.40073918760092 Q 66.89071525345094 38.925578960402234 67.64912333368217 38.06278425999926 Q 66.40773178042146 38.55195496335624 65.06650195507484 38.851516620519554 Z M 62.300757937841965 52.33538374923161 L 76.82157946122966 53.60365935326281 L 77.35684408519272 55.468255339004166 L 65.81455250280527 64.57569806711263 L 65.24855498177254 62.60404393864929 L 68.77176247924372 59.94134821328387 L 67.20182365393578 54.472461422568806 L 62.82833933753762 54.173215199292464 Z M 68.7548427194337 54.567416277187704 L 70.02769687306835 59.00140768825685 L 73.25798626419103 56.596620017694974 Q 74.72919073158211 55.498315355326255 75.70377410521118 54.89021605500658 Q 74.37413083506527 55.00152526255699 73.00342586932285 54.902517547045306 Z" transform="matrix(2.805696, 0.393498, -0.21594, 3.137057, 269.610443, -1.957276)" style="fill: rgb(255, 255, 255); white-space: pre;"/>
  <path d="M 82.936 361.727 L 85.476 366.506 C 83.58 367.597 82.175 368.847 81.261 370.255 C 80.345 371.663 79.877 373.439 79.855 375.587 C 79.832 377.735 80.3 379.939 81.259 382.2 C 82.109 384.208 83.16 385.852 84.41 387.133 C 85.661 388.414 86.967 389.205 88.328 389.509 C 89.689 389.812 90.987 389.699 92.22 389.169 C 93.472 388.632 94.41 387.802 95.039 386.677 C 95.666 385.553 95.944 384.022 95.874 382.086 C 95.839 380.839 95.487 378.201 94.818 374.169 C 94.149 370.139 93.894 367.222 94.053 365.423 C 94.245 363.096 94.884 361.148 95.968 359.583 C 97.051 358.017 98.508 356.841 100.341 356.055 C 102.354 355.191 104.478 354.953 106.711 355.342 C 108.945 355.73 110.978 356.825 112.814 358.624 C 114.648 360.423 116.133 362.662 117.268 365.339 C 118.517 368.288 119.143 371.092 119.145 373.753 C 119.147 376.413 118.481 378.746 117.144 380.752 C 115.807 382.758 113.988 384.308 111.687 385.403 L 109.166 380.519 C 111.572 379.166 113.088 377.431 113.713 375.314 C 114.338 373.196 114.002 370.609 112.706 367.552 C 111.357 364.369 109.789 362.3 108.001 361.345 C 106.215 360.392 104.495 360.269 102.845 360.976 C 101.412 361.592 100.451 362.613 99.963 364.041 C 99.468 365.451 99.641 368.503 100.483 373.197 C 101.326 377.892 101.722 381.191 101.672 383.094 C 101.583 385.868 100.951 388.159 99.777 389.967 C 98.603 391.775 96.946 393.138 94.806 394.056 C 92.683 394.967 90.426 395.22 88.035 394.813 C 85.644 394.407 83.446 393.292 81.441 391.469 C 79.436 389.647 77.831 387.315 76.628 384.476 C 75.102 380.876 74.349 377.634 74.37 374.75 C 74.391 371.866 75.165 369.278 76.692 366.987 C 78.218 364.697 80.299 362.944 82.936 361.727 Z M 90.088 409.719 L 93.783 405.873 L 129.012 401.116 C 131.512 400.778 133.779 400.571 135.811 400.496 L 118.436 383.818 L 121.987 380.12 L 144.291 401.529 L 140.74 405.227 L 102.381 410.182 L 98.377 410.569 L 118.259 429.653 L 114.707 433.35 L 90.088 409.719 Z M 135.535 447.44 L 154.461 414.145 L 142.068 407.156 L 144.601 402.701 L 174.415 419.516 L 171.883 423.97 L 159.439 416.953 L 140.513 450.248 L 135.535 447.44 Z M 168.813 442.366 C 170.867 435.464 174.324 430.601 179.185 427.776 C 184.046 424.95 189.402 424.391 195.253 426.097 C 199.083 427.215 202.264 429.139 204.794 431.87 C 207.325 434.601 208.909 437.842 209.546 441.593 C 210.183 445.345 209.884 449.299 208.645 453.459 C 207.391 457.675 205.419 461.199 202.731 464.032 C 200.041 466.864 196.886 468.682 193.262 469.484 C 189.639 470.287 186.025 470.163 182.421 469.111 C 178.514 467.973 175.304 466.008 172.79 463.221 C 170.277 460.432 168.715 457.172 168.102 453.439 C 167.49 449.705 167.727 446.014 168.813 442.366 Z M 174.45 444.101 C 172.959 449.112 173.129 453.451 174.96 457.119 C 176.792 460.786 179.736 463.212 183.794 464.396 C 187.927 465.601 191.761 465.137 195.298 463.004 C 198.835 460.871 201.4 457.13 202.992 451.779 C 203.999 448.395 204.307 445.274 203.917 442.417 C 203.527 439.56 202.439 437.116 200.653 435.085 C 198.869 433.054 196.608 431.639 193.871 430.841 C 189.984 429.708 186.24 430.07 182.641 431.927 C 179.043 433.785 176.313 437.843 174.45 444.101 Z M 217.439 477.081 L 220.197 433.849 L 225.917 434.177 L 224.549 455.616 L 247.378 435.409 L 255.131 435.854 L 235.883 452.33 L 253.168 479.131 L 245.621 478.698 L 231.629 455.934 L 224.114 462.428 L 223.157 477.409 L 217.439 477.081 Z M 266.141 478.99 L 259.441 436.254 L 265.103 435.331 L 267.854 452.88 L 290.092 449.255 L 287.341 431.705 L 293.003 430.782 L 299.702 473.52 L 294.041 474.443 L 290.882 454.299 L 268.645 457.924 L 271.802 478.067 L 266.141 478.99 Z M 307.432 450.922 C 304.718 444.284 304.381 438.347 306.42 433.111 C 308.458 427.875 312.304 424.087 317.958 421.747 C 321.66 420.214 325.358 419.713 329.051 420.247 C 332.745 420.78 336.016 422.301 338.865 424.81 C 341.714 427.321 343.956 430.576 345.592 434.576 C 347.25 438.632 347.913 442.601 347.58 446.481 C 347.247 450.362 345.912 453.747 343.576 456.64 C 341.241 459.532 338.331 461.699 334.848 463.141 C 331.074 464.704 327.328 465.192 323.612 464.604 C 319.896 464.016 316.629 462.467 313.811 459.954 C 310.993 457.443 308.867 454.431 307.432 450.922 Z M 312.936 448.738 C 314.906 453.557 317.758 456.816 321.49 458.513 C 325.222 460.211 329.049 460.247 332.969 458.624 C 336.963 456.97 339.677 454.208 341.113 450.339 C 342.548 446.47 342.214 441.962 340.11 436.815 C 338.779 433.56 337.066 430.947 334.971 428.976 C 332.875 427.005 330.491 425.79 327.82 425.333 C 325.149 424.877 322.492 425.196 319.848 426.291 C 316.091 427.846 313.385 430.472 311.729 434.167 C 310.073 437.861 310.475 442.718 312.936 448.738 Z M 367.031 447.288 L 343.199 411.287 L 347.984 408.102 L 369.003 439.855 L 386.811 428.004 L 389.623 432.253 L 367.031 447.288 Z M 401.78 423.942 L 371.917 392.776 L 378.164 386.788 L 406.731 401.739 C 409.385 403.139 411.358 404.197 412.65 404.917 C 411.92 403.442 410.88 401.243 409.532 398.321 L 396.262 369.439 L 401.845 364.087 L 431.709 395.253 L 427.708 399.088 L 402.713 373.002 L 418.595 407.824 L 414.851 411.413 L 380.358 393.575 L 405.781 420.107 L 401.78 423.942 Z" style="fill: rgb(255, 255, 255); white-space: pre;" transform="matrix(0.998703, -0.050923, 0.050923, 0.998703, -20.914022, 13.426729)"/>
  <path d="M 298.53143310546875 157.47366333007812 L 301.48016357421875 157.21585083007812 Q 301.68963623046875 158.98831176757812 302.45501708984375 160.12429809570312 Q 303.22039794921875 161.26028442382812 304.83172607421875 161.96121215820312 Q 306.44305419921875 162.66213989257812 308.45721435546875 162.66213989257812 Q 310.24578857421875 162.66213989257812 311.61541748046875 162.13040161132812 Q 312.98504638671875 161.59866333007812 313.65374755859375 160.67214965820312 Q 314.32244873046875 159.74563598632812 314.32244873046875 158.64993286132812 Q 314.32244873046875 157.53811645507812 313.67791748046875 156.70828247070312 Q 313.03338623046875 155.87844848632812 311.55096435546875 155.31448364257812 Q 310.60028076171875 154.94387817382812 307.34539794921875 154.16238403320312 Q 304.09051513671875 153.38088989257812 302.78533935546875 152.68801879882812 Q 301.09344482421875 151.80178833007812 300.26361083984375 150.48855590820312 Q 299.43377685546875 149.17532348632812 299.43377685546875 147.54788208007812 Q 299.43377685546875 145.75930786132812 300.44891357421875 144.20437622070312 Q 301.46405029296875 142.64944458007812 303.41375732421875 141.84378051757812 Q 305.36346435546875 141.03811645507812 307.74822998046875 141.03811645507812 Q 310.37469482421875 141.03811645507812 312.38079833984375 141.88406372070312 Q 314.38690185546875 142.73001098632812 315.46649169921875 144.37356567382812 Q 316.54608154296875 146.01712036132812 316.62664794921875 148.09573364257812 L 313.62957763671875 148.32131958007812 Q 313.38787841796875 146.08157348632812 311.99407958984375 144.93753051757812 Q 310.60028076171875 143.79348754882812 307.87713623046875 143.79348754882812 Q 305.04119873046875 143.79348754882812 303.74407958984375 144.83279418945312 Q 302.44696044921875 145.87210083007812 302.44696044921875 147.33840942382812 Q 302.44696044921875 148.61135864257812 303.36541748046875 149.43313598632812 Q 304.26776123046875 150.25491333007812 308.07855224609375 151.11697387695312 Q 311.88934326171875 151.97903442382812 313.30731201171875 152.62356567382812 Q 315.36981201171875 153.57424926757812 316.35272216796875 155.03250122070312 Q 317.33563232421875 156.49075317382812 317.33563232421875 158.39212036132812 Q 317.33563232421875 160.27737426757812 316.25604248046875 161.94509887695312 Q 315.17645263671875 163.61282348632812 313.15423583984375 164.53933715820312 Q 311.13201904296875 165.46585083007812 308.60223388671875 165.46585083007812 Q 305.39569091796875 165.46585083007812 303.22845458984375 164.53128051757812 Q 301.06121826171875 163.59671020507812 299.82855224609375 161.71951293945312 Q 298.59588623046875 159.84231567382812 298.53143310546875 157.47366333007812 Z M 321.3854675292969 155.95901489257812 L 319.0490417480469 157.94094848632812 L 319.0490417480469 155.25003051757812 L 321.3854675292969 153.25198364257812 L 321.3854675292969 141.44094848632812 L 324.5114440917969 141.44094848632812 L 324.5114440917969 150.59329223632812 L 329.8610534667969 146.06546020507812 L 329.8610534667969 148.75637817382812 L 324.5114440917969 153.28421020507812 L 324.5114440917969 162.27542114257812 L 336.2419128417969 162.27542114257812 L 336.2419128417969 165.06301879882812 L 321.3854675292969 165.06301879882812 Z M 355.4396667480469 141.44094848632812 L 358.5656433105469 141.44094848632812 L 358.5656433105469 155.08889770507812 Q 358.5656433105469 158.64993286132812 357.7599792480469 160.74465942382812 Q 356.9543151855469 162.83938598632812 354.8515319824219 164.15261840820312 Q 352.7487487792969 165.46585083007812 349.3327331542969 165.46585083007812 Q 346.0133972167969 165.46585083007812 343.9025573730469 164.32180786132812 Q 341.7917175292969 163.17776489257812 340.8893737792969 161.01052856445312 Q 339.9870300292969 158.84329223632812 339.9870300292969 155.08889770507812 L 339.9870300292969 141.44094848632812 L 343.1130065917969 141.44094848632812 L 343.1130065917969 155.07278442382812 Q 343.1130065917969 158.15042114257812 343.6850280761719 159.60867309570312 Q 344.2570495605469 161.06692504882812 345.6508483886719 161.85647583007812 Q 347.0446472167969 162.64602661132812 349.0588073730469 162.64602661132812 Q 352.5070495605469 162.64602661132812 353.9733581542969 161.08303833007812 Q 355.4396667480469 159.52005004882812 355.4396667480469 155.07278442382812 Z M 361.8815612792969 165.06301879882812 L 361.8815612792969 162.16262817382812 L 373.9826354980469 147.03225708007812 Q 375.2716979980469 145.42092895507812 376.4318542480469 144.22854614257812 L 363.2511901855469 144.22854614257812 L 363.2511901855469 141.44094848632812 L 380.1701354980469 141.44094848632812 L 380.1701354980469 144.22854614257812 L 366.9089050292969 160.61575317382812 L 365.4748229980469 162.27542114257812 L 380.5568542480469 162.27542114257812 L 380.5568542480469 165.06301879882812 Z M 369.8092956542969 139.99075317382812 L 369.8092956542969 136.38137817382812 L 373.4025573730469 136.38137817382812 L 373.4025573730469 139.99075317382812 Z M 383.7785339355469 165.06301879882812 L 383.7785339355469 141.44094848632812 L 392.6408386230469 141.44094848632812 Q 395.3478698730469 141.44094848632812 396.9833679199219 142.15798950195312 Q 398.6188659667969 142.87503051757812 399.5453796386719 144.36550903320312 Q 400.4718933105469 145.85598754882812 400.4718933105469 147.48342895507812 Q 400.4718933105469 148.99807739257812 399.6501159667969 150.33547973632812 Q 398.8283386230469 151.67288208007812 397.1686706542969 152.49465942382812 Q 399.3117370605469 153.12307739257812 400.4638366699219 154.63772583007812 Q 401.6159362792969 156.15237426757812 401.6159362792969 158.21487426757812 Q 401.6159362792969 159.87454223632812 400.9150085449219 161.30056762695312 Q 400.2140808105469 162.72659301757812 399.1828308105469 163.50003051757812 Q 398.1515808105469 164.27346801757812 396.5966491699219 164.66824340820312 Q 395.0417175292969 165.06301879882812 392.7858581542969 165.06301879882812 Z M 386.9045104980469 151.36672973632812 L 392.0124206542969 151.36672973632812 Q 394.0910339355469 151.36672973632812 394.9933776855469 151.09280395507812 Q 396.1857604980469 150.73831176757812 396.7900085449219 149.91653442382812 Q 397.3942565917969 149.09475708007812 397.3942565917969 147.85403442382812 Q 397.3942565917969 146.67776489257812 396.8302917480469 145.78347778320312 Q 396.2663269042969 144.88919067382812 395.2189636230469 144.55886840820312 Q 394.1716003417969 144.22854614257812 391.6257019042969 144.22854614257812 L 386.9045104980469 144.22854614257812 Z M 386.9045104980469 162.27542114257812 L 392.7858581542969 162.27542114257812 Q 394.3005065917969 162.27542114257812 394.9128112792969 162.16262817382812 Q 395.9924011230469 161.96926879882812 396.7174987792969 161.51809692382812 Q 397.4425964355469 161.06692504882812 397.9098815917969 160.20486450195312 Q 398.3771667480469 159.34280395507812 398.3771667480469 158.21487426757812 Q 398.3771667480469 156.89358520507812 397.7004089355469 155.91873168945312 Q 397.0236511230469 154.94387817382812 395.8232116699219 154.54910278320312 Q 394.6227722167969 154.15432739257812 392.3669128417969 154.15432739257812 L 386.9045104980469 154.15432739257812 Z M 403.328857421875 165.06301879882812 L 412.400634765625 141.44094848632812 L 415.768310546875 141.44094848632812 L 425.436279296875 165.06301879882812 L 421.875244140625 165.06301879882812 L 419.119873046875 157.90872192382812 L 409.242431640625 157.90872192382812 L 406.648193359375 165.06301879882812 Z M 410.144775390625 155.36282348632812 L 418.153076171875 155.36282348632812 L 415.687744140625 148.82083129882812 Q 414.559814453125 145.83987426757812 414.011962890625 143.92239379882812 Q 413.560791015625 146.19436645507812 412.739013671875 148.43411254882812 Z" transform="matrix(0.49498, 0.868904, -0.868904, 0.49498, 295.835571, -205.075912)" style="fill: rgb(35, 43, 255); white-space: pre;"/>
  <path d="M 99.20668029785156 184.61888122558594 L 102.02650451660156 184.23216247558594 Q 102.13929748535156 186.93919372558594 103.04164123535156 187.93821716308594 Q 103.94398498535156 188.93724060058594 105.53919982910156 188.93724060058594 Q 106.71546936035156 188.93724060058594 107.56947326660156 188.39744567871094 Q 108.42347717285156 187.85765075683594 108.74574279785156 186.93113708496094 Q 109.06800842285156 186.00462341308594 109.06800842285156 183.97434997558594 L 109.06800842285156 167.69993591308594 L 112.19398498535156 167.69993591308594 L 112.19398498535156 183.79710388183594 Q 112.19398498535156 186.76194763183594 111.47694396972656 188.38938903808594 Q 110.75990295410156 190.01683044433594 109.20497131347656 190.87083435058594 Q 107.65003967285156 191.72483825683594 105.55531311035156 191.72483825683594 Q 102.44544982910156 191.72483825683594 100.79383850097656 189.93626403808594 Q 99.14222717285156 188.14768981933594 99.20668029785156 184.61888122558594 Z M 117.3507308959961 191.32200622558594 L 117.3507308959961 167.69993591308594 L 134.4308090209961 167.69993591308594 L 134.4308090209961 170.48753356933594 L 120.4767074584961 170.48753356933594 L 120.4767074584961 177.72239685058594 L 133.5445785522461 177.72239685058594 L 133.5445785522461 180.49388122558594 L 120.4767074584961 180.49388122558594 L 120.4767074584961 188.53440856933594 L 134.9786605834961 188.53440856933594 L 134.9786605834961 191.32200622558594 Z M 139.28628540039062 191.32200622558594 L 139.28628540039062 167.69993591308594 L 147.42349243164062 167.69993591308594 Q 150.17886352539062 167.69993591308594 151.62905883789062 168.03831481933594 Q 153.65933227539062 168.50559997558594 155.09341430664062 169.73020935058594 Q 156.96255493164062 171.30931091308594 157.88906860351562 173.76658630371094 Q 158.81558227539062 176.22386169433594 158.81558227539062 179.38206481933594 Q 158.81558227539062 182.07298278808594 158.18716430664062 184.15159606933594 Q 157.55874633789062 186.23020935058594 156.57583618164062 187.59178161621094 Q 155.59292602539062 188.95335388183594 154.42471313476562 189.73484802246094 Q 153.25650024414062 190.51634216308594 151.60488891601562 190.91917419433594 Q 149.95327758789062 191.32200622558594 147.81021118164062 191.32200622558594 Z M 142.41226196289062 188.53440856933594 L 147.45571899414062 188.53440856933594 Q 149.79214477539062 188.53440856933594 151.12149047851562 188.09934997558594 Q 152.45083618164062 187.66429138183594 153.24038696289062 186.87474060058594 Q 154.35220336914062 185.76292419433594 154.97256469726562 183.88572692871094 Q 155.59292602539062 182.00852966308594 155.59292602539062 179.33372497558594 Q 155.59292602539062 175.62767028808594 154.37637329101562 173.63768005371094 Q 153.15982055664062 171.64768981933594 151.41958618164062 170.97093200683594 Q 150.16275024414062 170.48753356933594 147.37515258789062 170.48753356933594 L 142.41226196289062 170.48753356933594 Z M 163.0821990966797 191.32200622558594 L 163.0821990966797 167.69993591308594 L 166.2887420654297 167.69993591308594 L 178.6959686279297 186.24632263183594 L 178.6959686279297 167.69993591308594 L 181.6930389404297 167.69993591308594 L 181.6930389404297 191.32200622558594 L 178.4864959716797 191.32200622558594 L 166.0792694091797 172.75950622558594 L 166.0792694091797 191.32200622558594 Z M 185.99188232421875 179.81712341308594 Q 185.99188232421875 173.93577575683594 189.15008544921875 170.60838317871094 Q 192.30828857421875 167.28099060058594 197.30340576171875 167.28099060058594 Q 200.57440185546875 167.28099060058594 203.20086669921875 168.84397888183594 Q 205.82733154296875 170.40696716308594 207.20501708984375 173.20262145996094 Q 208.58270263671875 175.99827575683594 208.58270263671875 179.54319763183594 Q 208.58270263671875 183.13645935058594 207.13250732421875 185.97239685058594 Q 205.68231201171875 188.80833435058594 203.02362060546875 190.26658630371094 Q 200.36492919921875 191.72483825683594 197.28729248046875 191.72483825683594 Q 193.95184326171875 191.72483825683594 191.32537841796875 190.11351013183594 Q 188.69891357421875 188.50218200683594 187.34539794921875 185.71458435058594 Q 185.99188232421875 182.92698669433594 185.99188232421875 179.81712341308594 Z M 189.21453857421875 179.86546325683594 Q 189.21453857421875 184.13548278808594 191.51068115234375 186.59275817871094 Q 193.80682373046875 189.05003356933594 197.27117919921875 189.05003356933594 Q 200.79998779296875 189.05003356933594 203.08001708984375 186.56858825683594 Q 205.36004638671875 184.08714294433594 205.36004638671875 179.52708435058594 Q 205.36004638671875 176.64280700683594 204.38519287109375 174.49168395996094 Q 203.41033935546875 172.34056091308594 201.53314208984375 171.15623474121094 Q 199.65594482421875 169.97190856933594 197.31951904296875 169.97190856933594 Q 194.00018310546875 169.97190856933594 191.60736083984375 172.25193786621094 Q 189.21453857421875 174.53196716308594 189.21453857421875 179.86546325683594 Z M 211.5353546142578 183.73265075683594 L 214.4840850830078 183.47483825683594 Q 214.6935577392578 185.24729919433594 215.4589385986328 186.38328552246094 Q 216.2243194580078 187.51927185058594 217.8356475830078 188.22019958496094 Q 219.4469757080078 188.92112731933594 221.4611358642578 188.92112731933594 Q 223.2497100830078 188.92112731933594 224.6193389892578 188.38938903808594 Q 225.9889678955078 187.85765075683594 226.6576690673828 186.93113708496094 Q 227.3263702392578 186.00462341308594 227.3263702392578 184.90892028808594 Q 227.3263702392578 183.79710388183594 226.6818389892578 182.96726989746094 Q 226.0373077392578 182.13743591308594 224.5548858642578 181.57347106933594 Q 223.6042022705078 181.20286560058594 220.3493194580078 180.42137145996094 Q 217.0944366455078 179.63987731933594 215.7892608642578 178.94700622558594 Q 214.0973663330078 178.06077575683594 213.2675323486328 176.74754333496094 Q 212.4376983642578 175.43431091308594 212.4376983642578 173.80686950683594 Q 212.4376983642578 172.01829528808594 213.4528350830078 170.46336364746094 Q 214.4679718017578 168.90843200683594 216.4176788330078 168.10276794433594 Q 218.3673858642578 167.29710388183594 220.7521514892578 167.29710388183594 Q 223.3786163330078 167.29710388183594 225.3847198486328 168.14305114746094 Q 227.3908233642578 168.98899841308594 228.4704132080078 170.63255310058594 Q 229.5500030517578 172.27610778808594 229.6305694580078 174.35472106933594 L 226.6334991455078 174.58030700683594 Q 226.3917999267578 172.34056091308594 224.9980010986328 171.19651794433594 Q 223.6042022705078 170.05247497558594 220.8810577392578 170.05247497558594 Q 218.0451202392578 170.05247497558594 216.7480010986328 171.09178161621094 Q 215.4508819580078 172.13108825683594 215.4508819580078 173.59739685058594 Q 215.4508819580078 174.87034606933594 216.3693389892578 175.69212341308594 Q 217.2716827392578 176.51390075683594 221.0824737548828 177.37596130371094 Q 224.8932647705078 178.23802185058594 226.3112335205078 178.88255310058594 Q 228.3737335205078 179.83323669433594 229.3566436767578 181.29148864746094 Q 230.3395538330078 182.74974060058594 230.3395538330078 184.65110778808594 Q 230.3395538330078 186.53636169433594 229.2599639892578 188.20408630371094 Q 228.1803741455078 189.87181091308594 226.1581573486328 190.79832458496094 Q 224.1359405517578 191.72483825683594 221.6061553955078 191.72483825683594 Q 218.3996124267578 191.72483825683594 216.2323760986328 190.79026794433594 Q 214.0651397705078 189.85569763183594 212.8324737548828 187.97850036621094 Q 211.5998077392578 186.10130310058594 211.5353546142578 183.73265075683594 Z M 217.9806671142578 166.24974060058594 L 220.1237335205078 161.73802185058594 L 223.9264678955078 161.73802185058594 L 220.3815460205078 166.24974060058594 Z M 251.4533233642578 183.03977966308594 L 254.5792999267578 183.82933044433594 Q 253.5963897705078 187.68040466308594 251.0424346923828 189.70262145996094 Q 248.4884796142578 191.72483825683594 244.7985382080078 191.72483825683594 Q 240.9796905517578 191.72483825683594 238.5868682861328 190.16990661621094 Q 236.1940460205078 188.61497497558594 234.9452667236328 185.66624450683594 Q 233.6964874267578 182.71751403808594 233.6964874267578 179.33372497558594 Q 233.6964874267578 175.64378356933594 235.1063995361328 172.89646911621094 Q 236.5163116455078 170.14915466308594 239.1186065673828 168.72312927246094 Q 241.7209014892578 167.29710388183594 244.8468780517578 167.29710388183594 Q 248.3917999267578 167.29710388183594 250.8087921142578 169.10179138183594 Q 253.2257843017578 170.90647888183594 254.1764678955078 174.17747497558594 L 251.0988311767578 174.90257263183594 Q 250.2770538330078 172.32444763183594 248.7140655517578 171.14817810058594 Q 247.1510772705078 169.97190856933594 244.7824249267578 169.97190856933594 Q 242.0592803955078 169.97190856933594 240.2304229736328 171.27708435058594 Q 238.4015655517578 172.58226013183594 237.6603546142578 174.78172302246094 Q 236.9191436767578 176.98118591308594 236.9191436767578 179.31761169433594 Q 236.9191436767578 182.33079528808594 237.7973175048828 184.57859802246094 Q 238.6754913330078 186.82640075683594 240.5285186767578 187.93821716308594 Q 242.3815460205078 189.05003356933594 244.5407257080078 189.05003356933594 Q 247.1671905517578 189.05003356933594 248.9879913330078 187.53538513183594 Q 250.8087921142578 186.02073669433594 251.4533233642578 183.03977966308594 Z M 242.7360382080078 166.24974060058594 L 244.8791046142578 161.73802185058594 L 248.6818389892578 161.73802185058594 L 245.1369171142578 166.24974060058594 Z" transform="matrix(0.500609, -0.865673, 0.865673, 0.500609, -91.775131, 260.683258)" style="fill: rgb(35, 43, 255); white-space: pre;"/>
  <path d="M 144.65464782714844 371.5010070800781 L 144.65464782714844 368.6006164550781 L 156.75572204589844 353.4702453613281 Q 158.04478454589844 351.8589172363281 159.20494079589844 350.6665344238281 L 146.02427673339844 350.6665344238281 L 146.02427673339844 347.8789367675781 L 162.94322204589844 347.8789367675781 L 162.94322204589844 350.6665344238281 L 149.68199157714844 367.0537414550781 L 148.24790954589844 368.7134094238281 L 163.32994079589844 368.7134094238281 L 163.32994079589844 371.5010070800781 Z M 166.69615173339844 371.5010070800781 L 166.69615173339844 347.8789367675781 L 174.83335876464844 347.8789367675781 Q 177.58872985839844 347.8789367675781 179.03892517089844 348.2173156738281 Q 181.06919860839844 348.6846008300781 182.50328063964844 349.9092102050781 Q 184.37242126464844 351.4883117675781 185.29893493652344 353.9455871582031 Q 186.22544860839844 356.4028625488281 186.22544860839844 359.5610656738281 Q 186.22544860839844 362.2519836425781 185.59703063964844 364.3305969238281 Q 184.96861267089844 366.4092102050781 183.98570251464844 367.7707824707031 Q 183.00279235839844 369.1323547363281 181.83457946777344 369.9138488769531 Q 180.66636657714844 370.6953430175781 179.01475524902344 371.0981750488281 Q 177.36314392089844 371.5010070800781 175.22007751464844 371.5010070800781 Z M 169.82212829589844 368.7134094238281 L 174.86558532714844 368.7134094238281 Q 177.20201110839844 368.7134094238281 178.53135681152344 368.2783508300781 Q 179.86070251464844 367.8432922363281 180.65025329589844 367.0537414550781 Q 181.76206970214844 365.9419250488281 182.38243103027344 364.0647277832031 Q 183.00279235839844 362.1875305175781 183.00279235839844 359.5127258300781 Q 183.00279235839844 355.8066711425781 181.78623962402344 353.8166809082031 Q 180.56968688964844 351.8266906738281 178.82945251464844 351.1499328613281 Q 177.57261657714844 350.6665344238281 174.78501892089844 350.6665344238281 L 169.82212829589844 350.6665344238281 Z M 190.57261657714844 371.5010070800781 L 190.57261657714844 347.8789367675781 L 201.04624938964844 347.8789367675781 Q 204.20445251464844 347.8789367675781 205.84800720214844 348.5154113769531 Q 207.49156188964844 349.1518859863281 208.47447204589844 350.7632141113281 Q 209.45738220214844 352.3745422363281 209.45738220214844 354.3242492675781 Q 209.45738220214844 356.8379211425781 207.82994079589844 358.5620422363281 Q 206.20249938964844 360.2861633300781 202.80259704589844 360.7534484863281 Q 204.04331970214844 361.3496398925781 204.68785095214844 361.9297180175781 Q 206.05747985839844 363.1865539550781 207.28208923339844 365.0718078613281 L 211.39097595214844 371.5010070800781 L 207.45933532714844 371.5010070800781 L 204.33335876464844 366.5864562988281 Q 202.96372985839844 364.4595031738281 202.07749938964844 363.3315734863281 Q 201.19126892089844 362.2036437988281 200.49034118652344 361.7524719238281 Q 199.78941345214844 361.3013000488281 199.06431579589844 361.1240539550781 Q 198.53257751464844 361.0112609863281 197.32408142089844 361.0112609863281 L 193.69859313964844 361.0112609863281 L 193.69859313964844 371.5010070800781 Z M 193.69859313964844 358.3042297363281 L 200.41783142089844 358.3042297363281 Q 202.56089782714844 358.3042297363281 203.76939392089844 357.8611145019531 Q 204.97789001464844 357.4179992675781 205.60630798339844 356.4431457519531 Q 206.23472595214844 355.4682922363281 206.23472595214844 354.3242492675781 Q 206.23472595214844 352.6484680175781 205.01817321777344 351.5688781738281 Q 203.80162048339844 350.4892883300781 201.17515563964844 350.4892883300781 L 193.69859313964844 350.4892883300781 Z M 213.40171813964844 359.9961242675781 Q 213.40171813964844 354.1147766113281 216.55992126464844 350.7873840332031 Q 219.71812438964844 347.4599914550781 224.71324157714844 347.4599914550781 Q 227.98423767089844 347.4599914550781 230.61070251464844 349.0229797363281 Q 233.23716735839844 350.5859680175781 234.61485290527344 353.3816223144531 Q 235.99253845214844 356.1772766113281 235.99253845214844 359.7221984863281 Q 235.99253845214844 363.3154602050781 234.54234313964844 366.1513977050781 Q 233.09214782714844 368.9873352050781 230.43345642089844 370.4455871582031 Q 227.77476501464844 371.9038391113281 224.69712829589844 371.9038391113281 Q 221.36167907714844 371.9038391113281 218.73521423339844 370.2925109863281 Q 216.10874938964844 368.6811828613281 214.75523376464844 365.8935852050781 Q 213.40171813964844 363.1059875488281 213.40171813964844 359.9961242675781 Z M 216.62437438964844 360.0444641113281 Q 216.62437438964844 364.3144836425781 218.92051696777344 366.7717590332031 Q 221.21665954589844 369.2290344238281 224.68101501464844 369.2290344238281 Q 228.20982360839844 369.2290344238281 230.48985290527344 366.7475891113281 Q 232.76988220214844 364.2661437988281 232.76988220214844 359.7060852050781 Q 232.76988220214844 356.8218078613281 231.79502868652344 354.6706848144531 Q 230.82017517089844 352.5195617675781 228.94297790527344 351.3352355957031 Q 227.06578063964844 350.1509094238281 224.72935485839844 350.1509094238281 Q 221.41001892089844 350.1509094238281 219.01719665527344 352.4309387207031 Q 216.62437438964844 354.7109680175781 216.62437438964844 360.0444641113281 Z M 244.14927673339844 371.5010070800781 L 237.88121032714844 347.8789367675781 L 241.08775329589844 347.8789367675781 L 244.68101501464844 363.3638000488281 Q 245.26109313964844 365.7969055175781 245.68003845214844 368.1977844238281 Q 246.58238220214844 364.4111633300781 246.74351501464844 363.8310852050781 L 251.23912048339844 347.8789367675781 L 255.00962829589844 347.8789367675781 L 258.39341735839844 359.8349914550781 Q 259.66636657714844 364.2822570800781 260.23033142089844 368.1977844238281 Q 260.68150329589844 365.9580383300781 261.40660095214844 363.0576477050781 L 265.11265563964844 347.8789367675781 L 268.25474548339844 347.8789367675781 L 261.77720642089844 371.5010070800781 L 258.76402282714844 371.5010070800781 L 253.78501892089844 353.5024719238281 Q 253.15660095214844 351.2466125488281 253.04380798339844 350.7309875488281 Q 252.67320251464844 352.3584289550781 252.35093688964844 353.5024719238281 L 247.33970642089844 371.5010070800781 Z M 271.6966552734375 371.5010070800781 L 271.6966552734375 347.8789367675781 L 274.8226318359375 347.8789367675781 L 274.8226318359375 371.5010070800781 Z M 280.4012451171875 371.5010070800781 L 280.4012451171875 347.8789367675781 L 297.4813232421875 347.8789367675781 L 297.4813232421875 350.6665344238281 L 283.5272216796875 350.6665344238281 L 283.5272216796875 357.9013977050781 L 296.5950927734375 357.9013977050781 L 296.5950927734375 360.6728820800781 L 283.5272216796875 360.6728820800781 L 283.5272216796875 368.7134094238281 L 298.0291748046875 368.7134094238281 L 298.0291748046875 371.5010070800781 Z M 302.3201904296875 371.5010070800781 L 302.3201904296875 347.8789367675781 L 305.5267333984375 347.8789367675781 L 317.9339599609375 366.4253234863281 L 317.9339599609375 347.8789367675781 L 320.9310302734375 347.8789367675781 L 320.9310302734375 371.5010070800781 L 317.7244873046875 371.5010070800781 L 305.3172607421875 352.9385070800781 L 305.3172607421875 371.5010070800781 Z M 326.7122802734375 371.5010070800781 L 326.7122802734375 347.8789367675781 L 329.8382568359375 347.8789367675781 L 329.8382568359375 371.5010070800781 Z M 335.4168701171875 371.5010070800781 L 335.4168701171875 347.8789367675781 L 352.4969482421875 347.8789367675781 L 352.4969482421875 350.6665344238281 L 338.5428466796875 350.6665344238281 L 338.5428466796875 357.9013977050781 L 351.6107177734375 357.9013977050781 L 351.6107177734375 360.6728820800781 L 338.5428466796875 360.6728820800781 L 338.5428466796875 368.7134094238281 L 353.0447998046875 368.7134094238281 L 353.0447998046875 371.5010070800781 Z" style="fill: rgb(35, 43, 255); white-space: pre;"/>
  <path transform="matrix(1, 0, 0, 1, 0, 0)" style="fill: rgb(51, 51, 51); white-space: pre;"/>
</svg>